<?xml version="1.0" encoding="utf-8"?>
<!-- Generator: Adobe Illustrator 21.0.0, SVG Export Plug-In . SVG Version: 6.00 Build 0)  -->
<svg version="1.1" id="_x32_" xmlns="http://www.w3.org/2000/svg" xmlns:xlink="http://www.w3.org/1999/xlink" x="0px" y="0px"
	 viewBox="0 0 512 512" style="enable-background:new 0 0 512 512;" xml:space="preserve">
<style type="text/css">
	.st0{fill:#3C0008;}
	.st1{fill:#FFFFFF;}
</style>
<path class="st0" d="M123.9,112.6L123.9,112.6L123.9,112.6z"/>
<path class="st0" d="M512,112.6c0-1-0.1-2-0.3-3C511.8,110.6,512,111.6,512,112.6L512,112.6z"/>
<path class="st0" d="M483.5,112.6l-0.3,1.5L483.5,112.6z"/>
<path class="st1" d="M377.6,152.1c-5.9-5.9-15.4-5.9-21.3,0l-37.7,37.7V139V77.6c0-8.3-6.7-15-15-15s-15,6.7-15,15v59.7v52.4
	L250.9,152c-5.9-5.9-15.4-5.9-21.3,0c-5.9,5.9-5.9,15.4,0,21.3l63.4,63.4c0.4,0.4,0.7,0.7,1.1,1c0.2,0.1,0.4,0.3,0.5,0.4
	c0.2,0.2,0.4,0.3,0.6,0.5c0.2,0.1,0.4,0.3,0.7,0.4c0.2,0.1,0.4,0.2,0.6,0.4c0.2,0.1,0.5,0.2,0.7,0.3s0.4,0.2,0.7,0.3
	c0.2,0.1,0.4,0.2,0.7,0.2c0.2,0.1,0.5,0.2,0.7,0.3h0.1c0.2,0.1,0.4,0.1,0.6,0.1c0.2,0.1,0.5,0.1,0.7,0.2c0.3,0.1,0.5,0.1,0.8,0.1
	c0.2,0,0.4,0.1,0.7,0.1c1,0.1,2,0.1,3,0c0.2,0,0.4-0.1,0.7-0.1c0.3,0,0.5-0.1,0.8-0.1c0.3-0.1,0.5-0.1,0.7-0.2
	c0.2,0,0.4-0.1,0.6-0.1h0.1c0.2-0.1,0.5-0.2,0.7-0.3s0.5-0.2,0.7-0.2c0.2-0.1,0.4-0.2,0.7-0.3c0.2-0.1,0.5-0.2,0.7-0.3
	s0.4-0.2,0.6-0.4c0.2-0.1,0.4-0.3,0.7-0.4c0.2-0.1,0.4-0.3,0.6-0.5c0.2-0.1,0.4-0.3,0.5-0.4c0.4-0.3,0.8-0.6,1.1-1l63.4-63.4
	C383.5,167.5,383.5,157.9,377.6,152.1z"/>
<g>
	<path class="st1" d="M511.7,109.6c-1.4-6.4-7.1-11.2-13.9-11.2c-5.8,0-10.8,3.5-13,8.4l-1.3,5.8l0,0l-0.3,1.5l-1.4,6.7l1.4-6.7
		L451,263.4c-1.2,5.4-5.8,9.6-11.6,10.5l-253.8,39l-61.8-200.3l0,0l0,0l-8.2-26.7l0,0l-12.5-40.7c-5.7-18.1-21.4-31.8-41-35.8
		l-45-9.1C9.5-1.2,2,3.3,0.3,10.5c-1.6,7.2,3.2,14.3,10.8,15.8l45,9.1c9.6,1.9,17.3,8.6,20.1,17.5l82.2,266.5
		c-1.9,0.8-3.6,1.7-5.4,2.7c-8.9,5-16,12-20.7,20.1c-4.6,7.8-7,16.6-7.2,25.6v1.4c0.2,7.1,1.8,13.9,4.6,20.1
		c4.5,9.9,11.8,18.3,21.2,24.3c9.3,6,20.6,9.4,32.7,9.4h264.2c7.8,0,14.1-6,14.1-13.3c0-7.4-6.3-13.3-14.1-13.3H183.5
		c-4.2,0-8.1-0.8-11.8-2.2c-5.4-2.2-10.1-5.8-13.3-10.4c-3.1-4.4-5-9.6-5.1-15.2c0.2-6.8,2.4-12.6,6.5-17.3c2.1-2.4,4.6-4.5,7.8-6.3
		c3.1-1.7,6.7-3.1,11-4l265.6-40.8c17.4-2.7,31.2-15.2,34.7-31.5L512,112.6C512,111.6,511.8,110.6,511.7,109.6z"/>
	<path class="st1" d="M216.2,444.8c-6.2-4-13.7-6.3-21.8-6.3c-5.4,0-10.5,1-15.2,2.9c-7,2.8-12.9,7.4-17.1,13.3
		c-4.2,5.9-6.7,13-6.6,20.5c0,5,1.1,9.9,3.1,14.3c3,6.6,7.9,12.2,14.1,16.2c6.2,4,13.8,6.3,21.8,6.3c5.3,0,10.5-1,15.1-2.9
		c7-2.8,12.9-7.4,17.1-13.3c4.2-5.9,6.7-13,6.7-20.6c0-5-1.1-9.9-3.1-14.3C227.3,454.3,222.4,448.7,216.2,444.8z M208.9,481
		c-1.2,2.6-3.2,4.9-5.7,6.5s-5.5,2.5-8.8,2.5c-2.2,0-4.2-0.4-6.1-1.2c-2.8-1.1-5.2-3-6.9-5.4s-2.7-5.2-2.7-8.3c0-2.1,0.4-4,1.2-5.8
		c1.2-2.6,3.2-4.9,5.7-6.5s5.5-2.5,8.8-2.5c2.2,0,4.2,0.4,6.1,1.2c2.8,1.1,5.2,3,6.9,5.4s2.7,5.2,2.7,8.3
		C210.1,477.3,209.7,479.2,208.9,481z"/>
	<path class="st1" d="M429.5,444.8c-6.2-4-13.7-6.3-21.8-6.3c-5.4,0-10.5,1-15.2,2.9c-7,2.8-12.9,7.4-17.1,13.3
		c-4.2,5.9-6.7,13-6.6,20.5c0,5,1.1,9.9,3.1,14.3c3,6.6,7.9,12.2,14.1,16.2s13.8,6.3,21.8,6.3c5.3,0,10.5-1,15.1-2.9
		c7-2.8,12.9-7.4,17.1-13.3c4.2-5.9,6.7-13,6.7-20.6c0-5-1.1-9.9-3.1-14.3C440.6,454.3,435.7,448.7,429.5,444.8z M422.2,481
		c-1.2,2.6-3.2,4.9-5.7,6.5s-5.5,2.5-8.8,2.5c-2.2,0-4.2-0.4-6.1-1.2c-2.8-1.1-5.2-3-6.9-5.4c-1.7-2.4-2.7-5.2-2.7-8.3
		c0-2.1,0.4-4,1.2-5.8c1.2-2.6,3.2-4.9,5.7-6.5s5.5-2.5,8.8-2.5c2.2,0,4.2,0.4,6.1,1.2c2.8,1.1,5.2,3,6.9,5.4
		c1.7,2.4,2.7,5.2,2.7,8.3C423.4,477.3,423,479.2,422.2,481z"/>
</g>
</svg>
